<?xml version="1.0" encoding="utf-8"?>
<!-- Generator: Adobe Illustrator 16.0.0, SVG Export Plug-In . SVG Version: 6.00 Build 0)  -->
<!DOCTYPE svg PUBLIC "-//W3C//DTD SVG 1.1//EN" "http://www.w3.org/Graphics/SVG/1.1/DTD/svg11.dtd">
<svg version="1.1" id="Layer_1" xmlns="http://www.w3.org/2000/svg" xmlns:xlink="http://www.w3.org/1999/xlink" x="0px" y="0px"
	 width="612px" height="792px" viewBox="0 0 612 792" enable-background="new 0 0 612 792" xml:space="preserve">
<g>
	<g>
		<path fill="#FFFFFF" d="M443.9,427.225c-13.579,0-32.285,5.28-39.272-1.508c-6.786-6.592-1.577-25.562-1.592-39.095
			c-0.021-21.273,0.406-42.559-0.24-63.813c-0.212-6.943,1.98-7.502,7.888-7.44c30.322,0.318,60.651,0.324,90.974-0.004
			c5.956-0.065,7.971,0.587,7.862,7.459c-0.512,32.581-0.438,65.177-0.041,97.76c0.074,6.094-1.613,6.99-7.134,6.793
			c-13.109-0.47-26.247-0.151-39.372-0.151c-2.45-7.729,4.071-8.863,8.515-11.267c4.757-2.573,10.588-4.233,10.922-10.759
			c0.351-6.8-5.583-8.527-10.321-11.068c-15.531-8.329-15.902-9.185-11.795-26.429c0.631-2.65,1.247-5.301,0.929-8.034
			c-0.434-3.714-1.238-7.781-5.721-8.018c-5.442-0.289-6.242,4.166-6.595,8.405c-0.148,1.804,0.245,3.592,0.535,5.38
			c3.133,19.318,3.125,19.319-14.149,30.149c-8.805,5.518-8.943,11.403-0.264,17.793C439.803,416.895,447.737,418.242,443.9,427.225
			z"/>
		<path fill-rule="evenodd" clip-rule="evenodd" fill="#5E5E5E" d="M443.9,427.225c-4.523-6.889-13.023-7.48-19.142-12.073
			c-9.607-7.212-9.974-13.511-1.052-21.245c3.604-3.125,7.741-4.581,12.074-5.84c9.063-2.634,13.336-7.424,7.962-16.854
			c-0.669-1.174-1.469-2.432-1.617-3.72c-0.98-8.433-3.4-17.385,4.447-23.944c5.045-4.213,11.158-4.232,16.407-0.371
			c8.876,6.527,8.514,16.851,4.92,24.62c-5.751,12.44-3.285,18.48,9.695,21.209c8.812,1.852,15.714,8.271,16.688,15.909
			c0.95,7.431-8.135,11.077-14.357,14.557c-5.405,3.023-11.284,5.2-16.954,7.752C456.615,427.225,450.258,427.225,443.9,427.225z"/>
	</g>
</g>
<ellipse fill="none" stroke="#F7941E" stroke-width="6" stroke-miterlimit="10" cx="455.759" cy="376.438" rx="50.453" ry="50.562"/>
<line fill="none" x1="420.333" y1="398.001" x2="426.333" y2="392.001"/>
<line fill="none" x1="445" y1="385.334" x2="424.666" y2="393.668"/>
<line fill="none" x1="424.666" y1="393.668" x2="420.333" y2="398.001"/>
<line fill="none" x1="420.333" y1="398.001" x2="428.916" y2="389.417"/>
<line fill="none" x1="441.964" y1="386.579" x2="450.548" y2="377.995"/>
<g>
	<path fill="#949494" d="M195,323.2V420.6c0,5.731-0.666,11.301-1.997,16.7c-1.331,5.4-3.625,10.166-6.884,14.3
		c-3.26,4.132-7.75,7.432-13.469,9.9c-5.719,2.466-12.969,3.7-21.747,3.7c-5.453,0-10.575-0.569-15.362-1.7
		c-4.788-1.135-8.979-2.935-12.569-5.4c-3.594-2.469-6.487-5.734-8.681-9.8c-2.194-4.068-3.426-9.1-3.691-15.1h7.601
		c0.399,4.531,1.531,8.399,3.399,11.6c1.866,3.2,4.301,5.831,7.301,7.9c3,2.065,6.365,3.565,10.1,4.5
		c3.731,0.931,7.731,1.399,12,1.399c7.065,0,12.966-1.068,17.7-3.199c4.731-2.135,8.5-4.9,11.3-8.301
		c2.8-3.399,4.766-7.269,5.9-11.6c1.131-4.334,1.699-8.7,1.699-13.1V398.8h-0.581c-3.594,7.601-8.481,13.4-14.669,17.4
		s-13.668,6-22.449,6c-7.582,0-14.135-1.3-19.656-3.9c-5.522-2.6-10.113-6.2-13.77-10.8c-3.659-4.6-6.387-9.966-8.181-16.1
		c-1.797-6.132-2.694-12.801-2.694-20c0-6.801,0.966-13.266,2.9-19.4c1.932-6.131,4.766-11.5,8.5-16.1
		c3.731-4.601,8.365-8.266,13.9-11c5.531-2.731,11.899-4.101,19.1-4.101c8.131,0,15.631,2.069,22.5,6.2
		c6.865,4.135,11.766,10,14.7,17.6h0.399V323.2H195z M150,327.4c-6.269,0-11.7,1.269-16.3,3.8c-4.601,2.534-8.4,5.868-11.4,10
		c-3,4.134-5.269,8.834-6.8,14.1c-1.534,5.269-2.3,10.635-2.3,16.101c0,6,0.766,11.699,2.3,17.1c1.531,5.4,3.865,10.1,7,14.1
		c3.131,4,7,7.169,11.6,9.5c4.601,2.335,9.9,3.5,15.9,3.5c6.266,0,11.731-1.199,16.4-3.6c4.665-2.4,8.565-5.666,11.699-9.8
		c3.132-4.132,5.466-8.831,7-14.101c1.531-5.266,2.301-10.831,2.301-16.699c0-5.731-0.77-11.266-2.301-16.601
		c-1.534-5.331-3.868-10.031-7-14.1c-3.134-4.065-7.034-7.3-11.699-9.7C161.731,328.6,156.266,327.4,150,327.4z"/>
	<path fill="#949494" d="M217.598,323.2h7.6v22h0.4c1.331-3.866,3.231-7.3,5.7-10.3c2.465-3,5.331-5.566,8.6-7.7
		c3.266-2.132,6.831-3.731,10.7-4.8c3.865-1.066,7.8-1.601,11.8-1.601c6,0,11.1,0.734,15.3,2.2c4.2,1.469,7.632,3.4,10.3,5.8
		c2.666,2.4,4.766,5.101,6.301,8.101c1.531,3,2.631,6.034,3.3,9.1c0.665,3.068,1.065,6.034,1.2,8.9
		c0.131,2.868,0.199,5.368,0.199,7.5V426h-7.6v-65c0-2.531-0.2-5.731-0.6-9.6c-0.4-3.866-1.569-7.566-3.5-11.101
		c-1.935-3.531-4.869-6.565-8.801-9.1c-3.934-2.531-9.368-3.8-16.3-3.8c-5.868,0-11.068,1.068-15.6,3.199
		c-4.534,2.135-8.4,5.101-11.601,8.9c-3.199,3.8-5.634,8.334-7.3,13.6c-1.669,5.27-2.5,11.035-2.5,17.301V426h-7.6V323.2z"/>
	<path fill="#949494" d="M323.197,303.8v-20.6h7.6v20.6H323.197z M323.197,426V323.2h7.6V426H323.197z"/>
	<path fill="#949494" d="M392.797,329.8h-22.4v71.8c0,4.135,0.466,7.4,1.4,9.801c0.932,2.399,2.365,4.234,4.3,5.5
		c1.932,1.269,4.266,2.034,7,2.3c2.731,0.269,5.9,0.334,9.5,0.2v6.6c-3.868,0.266-7.634,0.231-11.3-0.1
		c-3.669-0.332-6.9-1.332-9.7-3c-2.8-1.666-5.034-4.166-6.7-7.5c-1.668-3.332-2.368-7.932-2.1-13.801v-71.8h-19v-6.6h19v-32h7.6v32
		h22.4V329.8z"/>
</g>
</svg>
