<?xml version="1.0" encoding="utf-8"?>
<!-- Generator: Adobe Illustrator 16.0.0, SVG Export Plug-In . SVG Version: 6.00 Build 0)  -->
<!DOCTYPE svg PUBLIC "-//W3C//DTD SVG 1.1//EN" "http://www.w3.org/Graphics/SVG/1.1/DTD/svg11.dtd">
<svg version="1.1" id="Layer_1" xmlns="http://www.w3.org/2000/svg" xmlns:xlink="http://www.w3.org/1999/xlink" x="0px" y="0px"
	 width="420px" height="180px" viewBox="0 0 420 180" enable-background="new 0 0 420 180" xml:space="preserve">
<path fill-rule="evenodd" clip-rule="evenodd" fill="#949494" d="M346.104,137.467c-4.405-6.955-13.12-7.004-18.958-11.963
	c-10.675-9.066-11.05-12.275-0.936-21.813c3.512-3.311,7.898-4.307,12.221-5.495c9.34-2.567,13.346-7.581,7.443-16.631
	c-4.16-6.378-2.595-13.204-2.036-19.77c0.635-7.473,6.167-10.973,13.21-10.993c6.895-0.018,12.83,3.051,13.79,10.463
	c0.901,6.965,2.691,14.232-1.94,21.03c-4.951,7.264-3.381,12.947,5.646,14.983c10.809,2.44,22.48,8.53,22.09,18.382
	c-0.398,10.035-13.654,14.162-23.346,18.186c-2.722,1.129-6.669-0.348-8.112,3.621C358.818,137.467,352.463,137.467,346.104,137.467
	z"/>
<ellipse fill="none" stroke="#F7941E" stroke-width="6" stroke-miterlimit="10" cx="357.759" cy="85.238" rx="50.453" ry="50.562"/>
<line fill="none" x1="322.333" y1="106.801" x2="328.333" y2="100.802"/>
<line fill="none" x1="347" y1="94.134" x2="326.666" y2="102.468"/>
<line fill="none" x1="326.666" y1="102.468" x2="322.333" y2="106.801"/>
<line fill="none" x1="322.333" y1="106.801" x2="330.916" y2="98.218"/>
<line fill="none" x1="343.964" y1="95.379" x2="352.548" y2="86.794"/>
<g>
	<path fill="#949494" d="M97,32v97.399c0,5.731-0.666,11.301-1.997,16.7c-1.331,5.4-3.625,10.166-6.884,14.3
		c-3.26,4.132-7.75,7.432-13.469,9.9c-5.719,2.466-12.969,3.7-21.747,3.7c-5.453,0-10.575-0.569-15.362-1.7
		c-4.788-1.135-8.979-2.935-12.569-5.4c-3.594-2.469-6.487-5.734-8.681-9.8c-2.194-4.068-3.426-9.1-3.691-15.1H20.2
		c0.399,4.531,1.531,8.399,3.399,11.6c1.866,3.2,4.301,5.831,7.301,7.9c3,2.065,6.365,3.565,10.1,4.5
		c3.731,0.931,7.731,1.399,12,1.399c7.065,0,12.966-1.068,17.7-3.199c4.731-2.135,8.5-4.9,11.3-8.301
		c2.8-3.399,4.766-7.269,5.9-11.6c1.131-4.334,1.699-8.7,1.699-13.1V107.6h-0.581C85.425,115.2,80.537,121,74.35,125
		s-13.668,6-22.449,6c-7.582,0-14.135-1.3-19.656-3.9c-5.522-2.6-10.113-6.2-13.77-10.8c-3.659-4.6-6.387-9.966-8.181-16.1
		C8.497,94.068,7.6,87.399,7.6,80.2c0-6.801,0.966-13.266,2.9-19.4c1.932-6.131,4.766-11.5,8.5-16.1
		c3.731-4.601,8.365-8.266,13.9-11C38.432,30.969,44.8,29.6,52,29.6c8.131,0,15.631,2.069,22.5,6.2c6.865,4.135,11.766,10,14.7,17.6
		H89.6V32H97z M52,36.2c-6.269,0-11.7,1.269-16.3,3.8c-4.601,2.534-8.4,5.868-11.4,10c-3,4.134-5.269,8.834-6.8,14.1
		c-1.534,5.269-2.3,10.635-2.3,16.101c0,6,0.766,11.699,2.3,17.1c1.531,5.4,3.865,10.1,7,14.1c3.131,4,7,7.169,11.6,9.5
		c4.601,2.335,9.9,3.5,15.9,3.5c6.266,0,11.731-1.199,16.4-3.6c4.665-2.4,8.565-5.666,11.699-9.8c3.132-4.132,5.466-8.831,7-14.101
		C88.631,91.634,89.4,86.068,89.4,80.2c0-5.731-0.77-11.266-2.301-16.601c-1.534-5.331-3.868-10.031-7-14.1
		c-3.134-4.065-7.034-7.3-11.699-9.7C63.731,37.399,58.266,36.2,52,36.2z"/>
	<path fill="#949494" d="M119.598,32h7.6v22h0.4c1.331-3.866,3.231-7.3,5.7-10.3c2.465-3,5.331-5.566,8.6-7.7
		c3.266-2.132,6.831-3.731,10.7-4.8c3.865-1.066,7.8-1.601,11.8-1.601c6,0,11.1,0.734,15.3,2.2c4.2,1.469,7.632,3.4,10.3,5.8
		c2.666,2.4,4.766,5.101,6.301,8.101c1.531,3,2.631,6.034,3.3,9.1c0.665,3.068,1.065,6.034,1.2,8.9
		c0.131,2.868,0.199,5.368,0.199,7.5v63.6h-7.6v-65c0-2.531-0.2-5.731-0.6-9.6c-0.4-3.866-1.569-7.566-3.5-11.101
		c-1.935-3.531-4.869-6.565-8.801-9.1c-3.934-2.531-9.368-3.8-16.3-3.8c-5.868,0-11.068,1.068-15.6,3.199
		c-4.534,2.135-8.4,5.101-11.601,8.9c-3.199,3.8-5.634,8.334-7.3,13.6c-1.669,5.27-2.5,11.035-2.5,17.301v55.6h-7.6V32z"/>
	<path fill="#949494" d="M225.197,12.6V-8h7.6v20.6H225.197z M225.197,134.8V32h7.6v102.8H225.197z"/>
	<path fill="#949494" d="M294.797,38.6h-22.4v71.8c0,4.135,0.466,7.4,1.4,9.801c0.932,2.399,2.365,4.234,4.3,5.5
		c1.932,1.269,4.266,2.034,7,2.3c2.731,0.269,5.9,0.334,9.5,0.2v6.6c-3.868,0.266-7.634,0.231-11.3-0.1
		c-3.669-0.332-6.9-1.332-9.7-3c-2.8-1.666-5.034-4.166-6.7-7.5c-1.668-3.332-2.368-7.932-2.1-13.801V38.6h-19V32h19V0h7.6v32h22.4
		V38.6z"/>
</g>
</svg>
