<?xml version="1.0" encoding="utf-8"?>
<!-- Generator: Adobe Illustrator 16.0.0, SVG Export Plug-In . SVG Version: 6.00 Build 0)  -->
<!DOCTYPE svg PUBLIC "-//W3C//DTD SVG 1.1//EN" "http://www.w3.org/Graphics/SVG/1.1/DTD/svg11.dtd">
<svg version="1.1" id="Layer_1" xmlns="http://www.w3.org/2000/svg" xmlns:xlink="http://www.w3.org/1999/xlink" x="0px" y="0px"
	 width="420px" height="200px" viewBox="0 0 420 200" enable-background="new 0 0 420 200" xml:space="preserve">
<g>
	<defs>
		<rect id="SVGID_1_" x="306.307" y="40.791" width="106.26" height="111.709"/>
	</defs>
	<clipPath id="SVGID_2_">
		<use xlink:href="#SVGID_1_"  overflow="visible"/>
	</clipPath>
	
		<path clip-path="url(#SVGID_2_)" fill-rule="evenodd" clip-rule="evenodd" fill="#949494" stroke="#939598" stroke-miterlimit="10" d="
		M349.924,154.954c-4.405-6.956-13.12-7.005-18.958-11.963c-10.675-9.067-11.05-12.275-0.936-21.814
		c3.512-3.31,7.898-4.306,12.222-5.494c9.339-2.567,13.345-7.582,7.443-16.631c-4.162-6.378-2.596-13.204-2.037-19.77
		c0.635-7.473,6.168-10.973,13.211-10.993c6.894-0.019,12.828,3.05,13.789,10.462c0.902,6.966,2.691,14.231-1.941,21.03
		c-4.95,7.264-3.38,12.947,5.647,14.983c10.809,2.44,22.481,8.531,22.09,18.382c-0.397,10.034-13.653,14.162-23.346,18.186
		c-2.722,1.129-6.669-0.348-8.112,3.621C362.639,154.954,356.281,154.954,349.924,154.954z"/>
</g>
<ellipse fill="none" stroke="#F7941E" stroke-width="6" stroke-miterlimit="10" cx="361.759" cy="104.438" rx="50.453" ry="50.562"/>
<text transform="matrix(1 0 0 1 5 154)" fill="#949494" font-family="'HelveticaNeue-Thin'" font-size="200">gnit</text>
</svg>
